<svg width="255" height="67" viewBox="0 0 255 67" fill="none" xmlns="http://www.w3.org/2000/svg">
<path d="M24.937 44.6671H20V27.5007H24.3687V29.5034C24.9133 28.8597 25.6592 28.2875 26.6064 27.7868C27.5535 27.2623 28.6191 27 29.803 27C32.1472 27 33.8876 27.8464 35.0242 29.5392C36.7527 27.8464 38.647 27 40.7071 27C42.8855 27 44.4838 27.6914 45.502 29.0743C46.5439 30.4333 47.0648 32.0069 47.0648 33.795V44.6671H42.1633V34.1169C42.1633 33.2348 41.9147 32.5433 41.4174 32.0426C40.9439 31.542 40.3045 31.2916 39.4995 31.2916C38.2445 31.2916 37.1197 31.8638 36.1252 33.0083C36.1489 33.1751 36.1608 33.4374 36.1608 33.795V44.6671H31.2593V34.1169C31.2593 33.2348 31.0106 32.5433 30.5134 32.0426C30.0398 31.542 29.4005 31.2916 28.5954 31.2916C27.1983 31.2916 25.9789 31.983 24.937 33.3659V44.6671Z" fill="#333333"/>
<path d="M58.6587 39.088L62.8854 27.5007H68L60.4346 46.7414C58.7534 50.9138 56.3027 53 53.0824 53C52.3957 53 51.5077 52.8689 50.4185 52.6066V48.4938C51.1999 48.6607 51.8748 48.7442 52.4431 48.7442C54.2426 48.7442 55.5923 47.4924 56.4921 44.989L56.5276 44.9175L48.465 27.5007H53.6862L58.6587 39.088Z" fill="#333333"/>
<path d="M99.1033 24.1776L78.2845 14.6868C77.8552 14.4915 77.3768 14.4231 76.9082 14.4901C75.4344 14.6917 74.0839 16.1183 74.081 17.8501L74 60.3895C74 62.1437 75.3627 63.1755 76.8221 62.9753C77.3787 62.899 77.9495 62.6435 78.4638 62.1822L96.0388 46.4037L88.425 42.9326C86.6545 42.1274 85.826 40.4621 85.7443 38.8968C85.6628 37.3362 86.287 35.6834 87.6116 34.4944L99.1033 24.1776Z" fill="url(#paint0_radial_24_602)"/>
<path d="M122.178 7.02468C123.639 6.82448 125.004 7.85627 125 9.61046L124.92 52.1499C124.916 53.8803 123.566 55.3069 122.093 55.5099C121.624 55.5769 121.145 55.5086 120.716 55.3132L89.3429 41.0102C87.5499 40.1947 87.4137 37.5536 89.0826 36.0556L120.536 7.81777C121.051 7.35648 121.621 7.10098 122.178 7.02468Z" fill="url(#paint1_radial_24_602)"/>
<path d="M137.407 44.5021H132.43V27.4295H137.407V44.5021ZM137.836 21.7743C137.836 22.699 137.562 23.3985 137.013 23.8728C136.464 24.347 135.76 24.5841 134.9 24.5841C134.065 24.5841 133.373 24.347 132.824 23.8728C132.275 23.3985 132 22.699 132 21.7743C132 20.8732 132.275 20.1856 132.824 19.7114C133.373 19.2371 134.065 19 134.9 19C135.736 19 136.428 19.2371 136.977 19.7114C137.55 20.1856 137.836 20.8732 137.836 21.7743Z" fill="#333333"/>
<path d="M142.984 22.4501L147.925 21.2763V27.4295H153.367V31.591H147.925V38.2777C147.925 39.985 148.844 40.8386 150.682 40.8386C151.78 40.8386 152.818 40.6489 153.797 40.2695V44.2531C152.365 44.751 150.825 45 149.178 45C147.364 45 145.872 44.5376 144.702 43.6129C143.557 42.6881 142.984 41.2298 142.984 39.238V31.591H140.084V27.4295H142.984V22.4501Z" fill="#333333"/>
<path d="M161.637 44.5021H156.66V27.4295H161.064V29.4213C161.613 28.7811 162.365 28.212 163.32 27.7141C164.275 27.1924 165.349 26.9316 166.543 26.9316C168.906 26.9316 170.66 27.7734 171.806 29.4569C173.548 27.7734 175.458 26.9316 177.535 26.9316C179.731 26.9316 181.342 27.6192 182.369 28.9945C183.419 30.3461 183.944 31.9111 183.944 33.6895V44.5021H179.003V34.0096C179.003 33.1322 178.752 32.4446 178.251 31.9466C177.774 31.4487 177.129 31.1997 176.317 31.1997C175.052 31.1997 173.918 31.7688 172.916 32.907C172.94 33.073 172.952 33.3338 172.952 33.6895V44.5021H168.011V34.0096C168.011 33.1322 167.76 32.4446 167.259 31.9466C166.781 31.4487 166.137 31.1997 165.325 31.1997C163.917 31.1997 162.688 31.8874 161.637 33.2627V44.5021Z" fill="#333333"/>
<path d="M189.78 42.617C187.942 41.0283 187.023 38.8112 187.023 35.9658C187.023 33.1204 187.942 30.9033 189.78 29.3146C191.618 27.7259 193.862 26.9316 196.512 26.9316C199.185 26.9316 201.429 27.7259 203.243 29.3146C205.081 30.9033 206 33.1204 206 35.9658C206 38.8112 205.081 41.0283 203.243 42.617C201.429 44.2057 199.185 45 196.512 45C193.862 45 191.618 44.2057 189.78 42.617ZM199.77 39.3092C200.558 38.4318 200.951 37.3174 200.951 35.9658C200.951 34.6142 200.558 33.5116 199.77 32.658C198.982 31.7807 197.896 31.342 196.512 31.342C195.127 31.342 194.041 31.7807 193.253 32.658C192.489 33.5116 192.108 34.6142 192.108 35.9658C192.108 37.3174 192.489 38.4318 193.253 39.3092C194.041 40.1628 195.127 40.5896 196.512 40.5896C197.896 40.5896 198.982 40.1628 199.77 39.3092Z" fill="#333333"/>
<defs>
<radialGradient id="paint0_radial_24_602" cx="0" cy="0" r="1" gradientUnits="userSpaceOnUse" gradientTransform="translate(149.194 25.9007) rotate(173.105) scale(75.5988 28.49)">
<stop stop-color="#E02E2E"/>
<stop offset="1" stop-color="#EE215B"/>
</radialGradient>
<radialGradient id="paint1_radial_24_602" cx="0" cy="0" r="1" gradientUnits="userSpaceOnUse" gradientTransform="translate(73.8934 43.793) rotate(-9.74763) scale(51.794 28.9748)">
<stop stop-color="#0091FF"/>
<stop offset="1" stop-color="#1846C7"/>
</radialGradient>
</defs>
</svg>
